Coordinates
version=1
nRows=24
nColumns=24
inDegrees=yes

Units are S.I. units (second, meters, Newtons, ...)
Angles are in degrees.

endheader
time	pelvis_tilt	pelvis_list	pelvis_rotation	pelvis_tx	pelvis_ty	pelvis_tz	hip_flexion_r	hip_adduction_r	hip_rotation_r	knee_angle_r	ankle_angle_r	subtalar_angle_r	mtp_angle_r	hip_flexion_l	hip_adduction_l	hip_rotation_l	knee_angle_l	ankle_angle_l	subtalar_angle_l	mtp_angle_l	lumbar_extension	lumbar_bending	lumbar_rotation
      3.95500000	     12.58652382	      1.33207229	     10.09224887	     -0.51496141	      0.92570548	     -0.27754750	      5.67134670	     -1.06269757	     -3.06846976	     -3.60596090	     12.15090373	     -2.81810617	      0.00000000	    -27.06171714	      0.30495804	      9.10723477	    -11.10953781	     23.13825079	      4.77843221	      0.00000000	    -31.02301829	      4.88532807	    -15.47516890
      3.96000000	     12.62575057	      1.07346032	     10.21076965	     -0.50833010	      0.92523990	     -0.27738254	      5.61723024	     -0.73484865	     -3.01719179	     -3.78461409	     11.97814052	     -3.05906045	      0.00000000	    -27.06817518	     -0.08386603	      8.86502340	    -12.03152801	     23.22378940	      5.34817220	      0.00000000	    -30.98610501	      5.21417589	    -15.49934798
      3.96500000	     12.71361718	      0.76693588	     10.30451975	     -0.50163018	      0.92486284	     -0.27714831	      5.52238156	     -0.33569207	     -2.95033260	     -4.04900405	     11.81863500	     -3.33435375	      0.00000000	    -27.09858338	     -0.52347697	      8.54329768	    -13.00046044	     23.27593232	      5.96420990	      0.00000000	    -30.99159950	      5.58200502	    -15.47997879
      3.97000000	     12.88322819	      0.41915639	     10.34488828	     -0.49488626	      0.92459840	     -0.27682004	      5.35136286	      0.13588158	     -2.83348530	     -4.38525242	     11.66241140	     -3.63676440	      0.00000000	    -27.19366117	     -1.00028084	      8.11569253	    -14.00850282	     23.27527609	      6.61947787	      0.00000000	    -31.08161767	      5.98316214	    -15.42524425
      3.97500000	     12.97543271	      0.03667179	     10.44887445	     -0.48808052	      0.92430897	     -0.27654697	      5.26733780	      0.62737753	     -2.84897505	     -4.80705997	     11.58269124	     -3.86673870	      0.00000000	    -27.15317103	     -1.52428596	      7.75957415	    -15.10919155	     23.24475033	      7.25457483	      0.00000000	    -31.06494982	      6.42167861	    -15.32316115
      3.98000000	     13.10811373	     -0.37247768	     10.51785575	     -0.48124796	      0.92409242	     -0.27617796	      5.14681703	      1.16716504	     -2.83260009	     -5.28598855	     11.49975946	     -4.12955807	      0.00000000	    -27.12247689	     -2.07570466	      7.30522097	    -16.26912590	     23.17005099	      7.94369799	      0.00000000	    -31.08857366	      6.87243139	    -15.23517321
      3.98500000	     13.22037207	     -0.81093743	     10.59956883	     -0.47438777	      0.92389275	     -0.27582495	      5.05493381	      1.73453345	     -2.84235721	     -5.83021785	     11.46073603	     -4.33820407	      0.00000000	    -27.02789338	     -2.65555540	      6.90396994	    -17.50021050	     23.04030107	      8.62231339	      0.00000000	    -31.08246681	      7.35828549	    -15.09524141
      3.99000000	     13.33935929	     -1.27257960	     10.66576988	     -0.46747444	      0.92373198	     -0.27540758	      4.95219276	      2.33718261	     -2.86855592	     -6.40538280	     11.43642741	     -4.56174373	      0.00000000	    -26.90534112	     -3.26213464	      6.43384899	    -18.79227615	     22.85700300	      9.32975841	      0.00000000	    -31.07347199	      7.85249474	    -14.96135414
      3.99500000	     13.45729861	     -1.74889422	     10.73651227	     -0.46053567	      0.92360477	     -0.27494510	      4.84950360	      2.96078385	     -2.89845500	     -7.01903163	     11.43689894	     -4.76824282	      0.00000000	    -26.74230804	     -3.89258800	      5.95436080	    -20.14543167	     22.60636167	     10.01986365	      0.00000000	    -31.05662129	      8.35056869	    -14.80817175
      4.00000000	     13.56735156	     -2.23454684	     10.79559742	     -0.45359605	      0.92349620	     -0.27447069	      4.74698165	      3.59565954	     -2.94472206	     -7.64510725	     11.46257361	     -4.95231256	      0.00000000	    -26.52647132	     -4.52634256	      5.48086669	    -21.57393327	     22.30280593	     10.68930225	      0.00000000	    -31.03240069	      8.85851299	    -14.64122080
      4.00500000	     13.66972726	     -2.73737380	     10.85421675	     -0.44659002	      0.92341248	     -0.27390317	      4.64892060	      4.25772970	     -2.99517388	     -8.29562237	     11.50793897	     -5.15713810	      0.00000000	    -26.27316961	     -5.19320176	      4.96849172	    -23.03770268	     21.91802552	     11.36135014	      0.00000000	    -30.98464884	      9.35726893	    -14.48304481
      4.01000000	     13.75712382	     -3.24495123	     10.91846304	     -0.43961495	      0.92333860	     -0.27337413	      4.55676715	      4.91832066	     -3.05396246	     -8.94753968	     11.58630445	     -5.30167029	      0.00000000	    -25.95463112	     -5.85956981	      4.52244690	    -24.57471188	     21.48169062	     11.98756422	      0.00000000	    -30.92453586	      9.86947204	    -14.29310922
      4.01500000	     13.82966913	     -3.75222215	     10.98104440	     -0.43262773	      0.92327658	     -0.27280372	      4.46574063	      5.58074322	     -3.12464851	     -9.59047759	     11.69068315	     -5.44516696	      0.00000000	    -25.57943640	     -6.53111732	      4.07624369	    -26.16652091	     20.97583307	     12.57424097	      0.00000000	    -30.84537995	     10.37218049	    -14.11845299
      4.02000000	     13.90000336	     -4.24279699	     11.03657300	     -0.42573798	      0.92324192	     -0.27223734	      4.36516765	      6.22274927	     -3.22576663	    -10.21891858	     11.79505657	     -5.54924002	      0.00000000	    -25.14968983	     -7.18076848	      3.66246872	    -27.82853630	     20.41621671	     13.07493195	      0.00000000	    -30.78923105	     10.85485549	    -13.91868633
      4.02500000	     13.87787938	     -4.74876111	     11.10586883	     -0.41870973	      0.92313860	     -0.27156260	      4.34778046	      6.87954082	     -3.24589978	    -10.84358052	     11.94494645	     -5.76051373	      0.00000000	    -24.59112002	     -7.86105854	      3.25915900	    -29.51266400	     19.78497233	     13.60284625	      0.00000000	    -30.58421454	     11.32717161	    -13.81947961
      4.03000000	     13.89562969	     -5.24746779	     11.17213753	     -0.41173485	      0.92308776	     -0.27096438	      4.26657151	      7.52492034	     -3.35280523	    -11.43161082	     12.15704491	     -5.82133711	      0.00000000	    -24.03711731	     -8.52865649	      2.89482781	    -31.23430996	     19.10930252	     13.98525087	      0.00000000	    -30.43988285	     11.80338420	    -13.64646063
      4.03500000	     13.92332554	     -5.74095970	     11.24982033	     -0.40479152	      0.92307458	     -0.27040359	      4.15113221	      8.16593027	     -3.43148967	    -11.97738602	     12.38096296	     -5.86309760	      0.00000000	    -23.45388429	     -9.19041275	      2.60654791	    -32.98415507	     18.38300331	     14.28167012	      0.00000000	    -30.30923716	     12.28600143	    -13.45438996
      4.04000000	     13.77628770	     -6.17976887	     11.36220894	     -0.39800950	      0.92292819	     -0.26977235	      4.22341662	      8.71885675	     -3.55070001	    -12.52988091	     12.59974378	     -5.98464452	      0.00000000	    -22.59374521	     -9.79614478	      2.42330936	    -34.83174229	     17.62938719	     14.55226485	      0.00000000	    -30.00255754	     12.68592155	    -13.41390835
      4.04500000	     13.81620925	     -6.65507241	     11.42672703	     -0.39107830	      0.92296303	     -0.26923637	      4.04684270	      9.34181793	     -3.62820219	    -12.99334348	     12.90198702	     -5.96147408	      0.00000000	    -21.96677741	    -10.43542093	      2.15902179	    -36.59808838	     16.83856119	     14.62062241	      0.00000000	    -29.88287302	     13.15242338	    -13.21983493
      4.05000000	     13.67675794	     -7.07697922	     11.56454265	     -0.38435250	      0.92286511	     -0.26865677	      4.06525710	      9.87441965	     -3.78092681	    -13.45092111	     13.16975519	     -6.00684176	      0.00000000	    -21.03955126	    -11.02854077	      2.07607254	    -38.46314481	     16.04546772	     14.72963847	      0.00000000	    -29.58447700	     13.54843957	    -13.20352027
      4.05500000	     13.67894270	     -7.51376597	     11.64154169	     -0.37749525	      0.92290717	     -0.26814467	      3.88535505	     10.45061863	     -3.84790122	    -13.83404382	     13.53142930	     -5.97547632	      0.00000000	    -20.30097377	    -11.61536857	      1.92677520	    -40.24182120	     15.23745970	     14.57199297	      0.00000000	    -29.43027200	     13.96933334	    -13.05262823
      4.06000000	     13.51849777	     -7.88480623	     11.80305666	     -0.37090088	      0.92283785	     -0.26764754	      3.88567683	     10.91798576	     -4.02817947	    -14.20999964	     13.84877231	     -5.95708867	      0.00000000	    -19.27392110	    -12.13879074	      1.97478683	    -42.10812372	     14.43550495	     14.44999887	      0.00000000	    -29.12230292	     14.32361588	    -13.03996300
      4.06500000	     13.43745171	     -8.25374574	     11.91705277	     -0.36423812	      0.92286082	     -0.26715983	      3.76428812	     11.40161549	     -4.15294735	    -14.52646994	     14.21960897	     -5.90046513	      0.00000000	    -18.35075072	    -12.64416916	      1.96982252	    -43.90327589	     13.65381164	     14.14881152	      0.00000000	    -28.89898671	     14.67208311	    -12.97275078
      4.07000000	     13.45746265	     -8.59880516	     11.99568307	     -0.35751494	      0.92302223	     -0.26671937	      3.48219164	     11.88654138	     -4.16907909	    -14.75911871	     14.62541218	     -5.85698483	      0.00000000	    -17.55853459	    -13.11032178	      1.95224118	    -45.61763782	     12.89011974	     13.69798768	      0.00000000	    -28.78922373	     15.00978800	    -12.86163714
